<svg width="17" height="18" viewBox="0 0 17 18" fill="none" xmlns="http://www.w3.org/2000/svg">
<rect x="0.5" y="-0.5" width="15.8" height="15.8" rx="7.9" transform="matrix(1 0 0 -1 0 16.3999)" stroke="#666666"/>
<path fill-rule="evenodd" clip-rule="evenodd" d="M4.15745 10.4828C4.00124 10.3266 4.00124 10.0733 4.15745 9.91711L8.11724 5.95731C8.27345 5.8011 8.52672 5.8011 8.68293 5.95731L8.82435 6.09873C8.82645 6.10083 8.82852 6.10295 8.83057 6.10509L12.6427 9.91725C12.7989 10.0735 12.7989 10.3267 12.6427 10.4829L12.5013 10.6244C12.3451 10.7806 12.0918 10.7806 11.9356 10.6244L8.40002 7.08875L4.86455 10.6242C4.70834 10.7804 4.45508 10.7804 4.29887 10.6242L4.15745 10.4828Z" fill="#666666"/>
</svg>
