<svg width="11" height="17" viewBox="0 0 11 17" fill="none" xmlns="http://www.w3.org/2000/svg">
    <path
        d="M9.13023 14.4401C9.3928 14.4401 9.64461 14.5444 9.83027 14.73C10.0159 14.9157 10.1202 15.1675 10.1202 15.4301C10.1202 15.6926 10.0159 15.9445 9.83027 16.1301C9.64461 16.3158 9.3928 16.4201 9.13023 16.4201H1.87023C1.60767 16.4201 1.35586 16.3158 1.1702 16.1301C0.984536 15.9445 0.880234 15.6926 0.880234 15.4301C0.880234 15.1675 0.984536 14.9157 1.1702 14.73C1.35586 14.5444 1.60767 14.4401 1.87023 14.4401H9.13023ZM5.50023 0.580078C5.7628 0.580078 6.01461 0.684381 6.20027 0.870042C6.38593 1.0557 6.49023 1.30751 6.49023 1.57008V8.59446L8.40027 6.51084C8.57111 6.32101 8.8087 6.20455 9.06339 6.18578C9.31808 6.16702 9.57018 6.2474 9.767 6.41014C9.96381 6.57287 10.0901 6.80537 10.1196 7.05905C10.149 7.31274 10.0792 7.56798 9.92487 7.77144L9.86019 7.84932L6.23019 11.8093C6.05448 12.001 5.81039 12.1159 5.55068 12.1291C5.29096 12.1423 5.03648 12.0528 4.84221 11.8799L4.77027 11.8093L1.14027 7.84932C0.968705 7.66225 0.875545 7.41643 0.880038 7.16264C0.884531 6.90885 0.986334 6.66648 1.16442 6.4856C1.3425 6.30472 1.58325 6.19916 1.83694 6.19071C2.09063 6.18226 2.33788 6.27158 2.52759 6.44022L2.60019 6.51084L4.51023 8.59578V1.57008C4.51023 1.30751 4.61454 1.0557 4.8002 0.870042C4.98586 0.684381 5.23767 0.580078 5.50023 0.580078Z"
        fill="#444444" />
</svg>
    