<svg width="16" height="16" viewBox="0 0 16 16" fill="none" xmlns="http://www.w3.org/2000/svg">
    <g id="&#231;&#188;&#150;&#231;&#187;&#132; 9&#229;&#164;&#135;&#228;&#187;&#189; 4" opacity="0.795169">
    <rect id="&#231;&#159;&#169;&#229;&#189;&#162;" x="1.5" y="14.5" width="13" height="13" rx="1.75" transform="rotate(-90 1.5 14.5)" stroke="#232832" style="stroke:#232832;stroke:color(display-p3 0.1360 0.1574 0.1949);stroke-opacity:1;"/>
    <path id="&#230;&#152;&#159;&#229;&#189;&#162;" fill-rule="evenodd" clip-rule="evenodd" d="M8.09307 10.0489C8.0348 10.0183 7.9652 10.0183 7.90693 10.0489L6.00755 11.0475C5.86083 11.1246 5.68934 11 5.71736 10.8367L6.08011 8.72167C6.09124 8.65679 6.06973 8.59059 6.02259 8.54464L4.48596 7.0468C4.36726 6.93109 4.43276 6.7295 4.59681 6.70566L6.72038 6.39709C6.78552 6.38762 6.84183 6.34671 6.87096 6.28768L7.82065 4.3634C7.89402 4.21475 8.10598 4.21475 8.17935 4.3634L9.12904 6.28768C9.15817 6.34671 9.21448 6.38762 9.27962 6.39709L11.4032 6.70566C11.5672 6.7295 11.6327 6.93109 11.514 7.0468L9.97741 8.54464C9.93027 8.59059 9.90876 8.65679 9.91989 8.72167L10.2826 10.8367C10.3107 11 10.1392 11.1246 9.99245 11.0475L8.09307 10.0489Z" stroke="#232832" style="stroke:#232832;stroke:color(display-p3 0.1360 0.1574 0.1949);stroke-opacity:1;"/>
    </g>
    </svg>
    