<svg width="33" height="23" viewBox="0 0 33 23" fill="none" xmlns="http://www.w3.org/2000/svg">
    <path fill-rule="evenodd" clip-rule="evenodd"
        d="M0.5 4.33337C0.5 2.12424 2.29086 0.333374 4.5 0.333374H19.1667C21.3758 0.333374 23.1667 2.12424 23.1667 4.33337V18.3334C23.1667 20.5425 21.3758 22.3334 19.1667 22.3334H4.5C2.29086 22.3334 0.5 20.5425 0.5 18.3334V4.33337ZM4.5 5.45837C4.5 4.90609 4.94771 4.45837 5.5 4.45837H7.5C8.05228 4.45837 8.5 4.90609 8.5 5.45837V7.58337C8.5 8.13566 8.05228 8.58337 7.5 8.58337H5.5C4.94771 8.58337 4.5 8.13566 4.5 7.58337V5.45837ZM33 4.85879C33 3.68986 31.7222 2.97013 30.7225 3.576L25.5742 6.69633L25.3333 6.8423V7.12393V15.43V15.7017L25.5613 15.8495L30.684 19.1709C31.6819 19.8179 33 19.1016 33 17.9122V4.85879ZM31.2408 4.43119C31.5741 4.22923 32 4.46914 32 4.85879V17.9122C32 18.3087 31.5606 18.5475 31.228 18.3318L26.3333 15.1583V7.40555L31.2408 4.43119Z"
        fill="#333333" />
</svg>
    