<svg width="16" height="16" viewBox="0 0 16 16" fill="none" xmlns="http://www.w3.org/2000/svg">
<mask id="path-1-inside-1_1_4" fill="white">
<rect y="6.10352e-05" width="16" height="16" rx="0.5"/>
</mask>
<rect y="6.10352e-05" width="16" height="16" rx="0.5" fill="white" stroke="#444444" stroke-width="4" mask="url(#path-1-inside-1_1_4)"/>
<path d="M4.51199 5.81608V6.39208H5.74399C6.10399 7.62408 6.74399 8.69608 7.67199 9.60808C6.80799 10.3921 5.70399 10.9601 4.35999 11.3201L4.66399 11.8241C6.02399 11.4321 7.15999 10.8161 8.07199 9.97608C8.93599 10.7201 10.024 11.3361 11.352 11.8321L11.664 11.3521C10.384 10.8801 9.31999 10.2881 8.47199 9.56808C9.25599 8.72008 9.84799 7.65608 10.24 6.39208H11.488V5.81608H8.43199C8.17599 5.26408 7.90399 4.79208 7.59999 4.40808L7.02399 4.61608C7.34399 4.99208 7.60799 5.39208 7.82399 5.81608H4.51199ZM6.31199 6.39208H9.63999C9.30399 7.49608 8.78399 8.43208 8.07199 9.20808C7.23999 8.40808 6.65599 7.47208 6.31199 6.39208Z" fill="#444444"/>
<path fill-rule="evenodd" clip-rule="evenodd" d="M4.31199 5.61608H7.48751C7.31129 5.31249 7.10719 5.02243 6.87168 4.74571L6.68467 4.52597L7.66745 4.17108L7.7568 4.28394C8.0517 4.65645 8.31433 5.10396 8.55891 5.61608H11.688V6.59208H10.3863C10.0114 7.74389 9.46813 8.73403 8.75997 9.54663C9.55979 10.1899 10.5494 10.7279 11.7332 11.1644L11.9682 11.2511L11.4323 12.0756L11.282 12.0194C10.0044 11.5423 8.9389 10.9527 8.07627 10.2412C7.1617 11.0446 6.04107 11.6353 4.71938 12.0163L4.57197 12.0587L4.05139 11.1957L4.30824 11.1269C5.54648 10.7952 6.56828 10.2862 7.38032 9.59789C6.54448 8.73191 5.95109 7.72929 5.59553 6.59208H4.31199V5.61608ZM5.74399 6.39208C6.08545 7.56066 6.67884 8.58529 7.53097 9.46597C7.57721 9.51377 7.62422 9.56114 7.67199 9.60808C7.62257 9.65292 7.57237 9.69705 7.52139 9.74048C6.72554 10.4184 5.73841 10.9245 4.56 11.2645C4.49393 11.2835 4.42726 11.3021 4.35999 11.3201L4.66399 11.8241C6.02399 11.4321 7.15999 10.8161 8.07199 9.97608C8.93599 10.7201 10.024 11.3361 11.352 11.8321L11.664 11.3521C11.5996 11.3283 11.5357 11.3043 11.4724 11.2799C10.3526 10.8491 9.40393 10.3229 8.6263 9.69577C8.57409 9.65366 8.52265 9.6111 8.47199 9.56808C8.51719 9.51918 8.56176 9.46957 8.60569 9.41924C9.32359 8.59671 9.87059 7.5832 10.24 6.39208H11.488V5.81608H8.43199C8.17599 5.26408 7.90399 4.79208 7.59999 4.40808L7.02399 4.61608C7.07008 4.67024 7.115 4.72489 7.15879 4.78004C7.3708 5.04705 7.55614 5.32573 7.71752 5.61608C7.75424 5.68215 7.78972 5.74881 7.82399 5.81608H4.51199V6.39208H5.74399ZM6.31199 6.39208C6.3334 6.45931 6.35574 6.52597 6.37901 6.59208C6.70795 7.52643 7.223 8.34973 7.92962 9.06741C7.97624 9.11476 8.0237 9.16165 8.07199 9.20808C8.07199 9.20808 8.07198 9.20809 8.07199 9.20808C8.11712 9.1589 8.16148 9.10906 8.20507 9.05858C8.80725 8.36128 9.26261 7.54091 9.5765 6.59208C9.59834 6.52604 9.61951 6.45937 9.63999 6.39208H6.31199ZM6.59144 6.59208C6.90978 7.46685 7.39807 8.23985 8.06267 8.91746C8.62858 8.25932 9.06168 7.48673 9.36556 6.59208H6.59144Z" fill="#444444"/>
</svg>
