<svg width="80" height="80" viewBox="0 0 80 80" fill="none" xmlns="http://www.w3.org/2000/svg">
<g id="&#231;&#188;&#150;&#231;&#187;&#132;">
<circle id="&#230;&#164;&#173;&#229;&#156;&#134;&#229;&#189;&#162;" cx="40" cy="40" r="38" stroke="#444444" stroke-width="4"/>
<path id="&#232;&#183;&#175;&#229;&#190;&#132;" d="M22.0393 54.5694C25.1584 49.9724 29.3723 46.8567 34.5689 45.3912L34.5713 45.3906C37.381 44.6019 39.8194 44.5066 41.2294 44.5448L43.1752 44.5974V46.544V53.6663L57.7786 38.3558L43.2517 23.0584V30.4668V32.3974L41.3223 32.4655C34.455 32.7081 29.5325 34.9563 26.3318 38.9079C25.0376 40.5119 24.0004 42.4338 23.2662 44.6457L22.0393 54.5694ZM22.0393 54.5694C21.9839 53.499 21.9695 52.0473 22.1147 50.3923C22.2993 48.3257 22.6869 46.3923 23.2661 44.6461L22.0393 54.5694Z" stroke="#444444" stroke-width="4"/>
</g>
</svg>
