<svg width="16" height="14" viewBox="0 0 16 14" fill="none" xmlns="http://www.w3.org/2000/svg">
    <g id="&#231;&#188;&#150;&#231;&#187;&#132; 9" opacity="0.795169">
    <circle id="&#230;&#164;&#173;&#229;&#156;&#134;&#229;&#189;&#162;" cx="5.5" cy="4.5" r="1" stroke="#D5E0F2" style="stroke:#D5E0F2;"/>
    <rect id="&#231;&#159;&#169;&#229;&#189;&#162;" x="0.5" y="0.5" width="15" height="13" rx="1.75" stroke="#D5E0F2" style="stroke:#D5E0F2;"/>
    <g id="&#232;&#183;&#175;&#229;&#190;&#132; 2">
    <mask id="path-3-inside-1_2613_41437" fill="white">
    <path fill-rule="evenodd" clip-rule="evenodd" d="M3 11L5.42403 8.9433C5.50934 8.87092 5.63487 8.87221 5.71867 8.94633L7.88124 10.8592C7.97058 10.9382 8.10606 10.9338 8.19006 10.8491L13 6"/>
    </mask>
    <path d="M2.35303 10.2375C1.93191 10.5948 1.88017 11.2258 2.23748 11.647C2.59479 12.0681 3.22584 12.1198 3.64697 11.7625L2.35303 10.2375ZM13.71 6.70423C14.0989 6.31213 14.0963 5.67897 13.7042 5.29003C13.3121 4.90109 12.679 4.90366 12.29 5.29577L13.71 6.70423ZM7.88124 10.8592L7.2187 11.6082L7.88124 10.8592ZM8.19006 10.8491L8.90003 11.5534L8.19006 10.8491ZM5.42403 8.9433L6.071 9.70582L5.42403 8.9433ZM5.71867 8.94633L6.38121 8.19731L5.71867 8.94633ZM3.64697 11.7625L6.071 9.70582L4.77706 8.18078L2.35303 10.2375L3.64697 11.7625ZM5.05613 9.69536L7.2187 11.6082L8.54378 10.1102L6.38121 8.19731L5.05613 9.69536ZM8.90003 11.5534L13.71 6.70423L12.29 5.29577L7.48009 10.1449L8.90003 11.5534ZM7.2187 11.6082C7.7051 12.0385 8.44272 12.0144 8.90003 11.5534L7.48009 10.1449C7.76941 9.85322 8.23606 9.83799 8.54378 10.1102L7.2187 11.6082ZM6.071 9.70582C5.77716 9.95513 5.34477 9.95068 5.05613 9.69536L6.38121 8.19731C5.92497 7.79374 5.24152 7.78671 4.77706 8.18078L6.071 9.70582Z" fill="#D5E0F2" style="fill:#D5E0F2;" mask="url(#path-3-inside-1_2613_41437)"/>
    </g>
    </g>
    </svg>
