<svg width="48" height="60" viewBox="0 0 48 60" fill="none" xmlns="http://www.w3.org/2000/svg">
    <path fill-rule="evenodd" clip-rule="evenodd"
        d="M24 30.3532C24 25.2469 21.857 20.6391 18.418 17.3736L22.5394 13.0301C27.1352 17.3851 30 23.5359 30 30.3532C30 36.9719 27.2997 42.9624 22.9367 47.2912L18.7048 43.0544C21.9758 39.808 24 35.3161 24 30.3532ZM35.6321 60.0017L31.4003 55.7649C37.9477 49.2713 42 40.2837 42 30.3532C42 20.114 37.6917 10.8771 30.7822 4.34302L34.9036 -0.000488281C42.9699 7.62305 48 18.403 48 30.3532C48 41.9395 43.2716 52.4257 35.6321 60.0017ZM6 36.3298C9.31371 36.3298 12 33.654 12 30.3532C12 27.0525 9.31371 24.3767 6 24.3767C2.68629 24.3767 0 27.0525 0 30.3532C0 33.654 2.68629 36.3298 6 36.3298Z"
        fill="#444444"
        style="fill:#444444;fill:color(display-p3 0.2667 0.2667 0.2667);fill-opacity:1;" />
</svg>
    