<svg width="62" height="78" fill="none" xmlns="http://www.w3.org/2000/svg"><g clip-path="url(#prefix__clip0_1_7)"><path fill-rule="evenodd" clip-rule="evenodd" d="M28 39.5c0-6.638-2.558-12.755-7-17l5-5.5c5.936 5.662 9 13.637 9 22.5 0 8.604-3.364 16.373-9 22L21 56c4.225-4.22 7-10.048 7-16.5zm18.025 38.502L41 73c8.457-8.442 13.25-20.631 13.25-33.54C54.25 26.147 48.925 13.493 40 5l5.084-5C55.503 9.91 62 23.924 62 39.46c0 15.062-6.108 28.694-15.975 38.542zM7.75 47.23c4.28 0 7.75-3.479 7.75-7.77 0-4.29-3.47-7.77-7.75-7.77-4.28 0-7.75 3.48-7.75 7.77 0 4.291 3.47 7.77 7.75 7.77z" fill="#444"/></g><defs><clipPath id="prefix__clip0_1_7"><path fill="#fff" d="M0 0h62v78H0z"/></clipPath></defs></svg>