<svg width="37" height="37" viewBox="0 0 37 37" fill="none" xmlns="http://www.w3.org/2000/svg">
<g id="&#231;&#188;&#150;&#231;&#187;&#132;">
<path id="&#229;&#189;&#162;&#231;&#138;&#182;&#231;&#187;&#147;&#229;&#144;&#136;" fill-rule="evenodd" clip-rule="evenodd" d="M10.5826 0.46165C10.2025 0.0807196 9.58916 0.0688692 9.19464 0.434835L5.63779 3.73431L4.20962 2.56125C3.79371 2.21963 3.18202 2.26848 2.8256 2.67178L1.19197 4.52024C0.816905 4.94463 0.868823 5.59552 1.30642 5.95509L5.1484 9.11198C5.5349 9.42956 6.09662 9.41269 6.46335 9.07247L12.304 3.65419C12.7194 3.26888 12.732 2.61581 12.3318 2.21475L10.5826 0.46165ZM9.16745 14.027C9.56196 13.661 10.1753 13.6728 10.5554 14.0538L12.3046 15.8069C12.7048 16.2079 12.6922 16.861 12.2768 17.2463L6.43616 22.6646C6.06942 23.0048 5.5077 23.0217 5.1212 22.7041L1.27923 19.5472C0.841626 19.1876 0.789707 18.5368 1.16478 18.1124L2.7984 16.2639C3.15483 15.8606 3.76652 15.8118 4.18243 16.1534L5.61059 17.3264L9.16745 14.027ZM14.1637 16.0705C14.1637 15.7944 14.3876 15.5705 14.6637 15.5705H36.4728C36.7489 15.5705 36.9728 15.7944 36.9728 16.0705V19.4692C36.9728 19.7453 36.7489 19.9692 36.4728 19.9692H14.6637C14.3876 19.9692 14.1637 19.7453 14.1637 19.4692V16.0705ZM10.5554 27.6271C10.1753 27.2461 9.56196 27.2343 9.16745 27.6002L5.61059 30.8997L4.18243 29.7267C3.76652 29.385 3.15483 29.4339 2.7984 29.8372L1.16478 31.6857C0.789707 32.11 0.841626 32.7609 1.27923 33.1205L5.1212 36.2774C5.5077 36.595 6.06942 36.5781 6.43616 36.2379L12.2768 30.8196C12.6922 30.4343 12.7048 29.7812 12.3046 29.3802L10.5554 27.6271ZM14.6637 29.1438C14.3876 29.1438 14.1637 29.3677 14.1637 29.6438V33.0424C14.1637 33.3186 14.3876 33.5424 14.6637 33.5424H36.4728C36.7489 33.5424 36.9728 33.3186 36.9728 33.0424V29.6438C36.9728 29.3677 36.7489 29.1438 36.4728 29.1438H14.6637ZM14.6909 1.97839C14.4148 1.97839 14.1909 2.20225 14.1909 2.47839V5.87703C14.1909 6.15318 14.4148 6.37703 14.6909 6.37703H36.5C36.7761 6.37703 37 6.15318 37 5.87703V2.47839C37 2.20225 36.7761 1.97839 36.5 1.97839H14.6909Z" fill="#444444"/>
</g>
</svg>
