<svg width="17" height="18" viewBox="0 0 17 18" fill="none" xmlns="http://www.w3.org/2000/svg">
<rect x="0.5" y="-0.5" width="15.8" height="15.8" rx="7.9" transform="matrix(1 0 0 -1 0 16.3999)" stroke="#666666"/>
<path fill-rule="evenodd" clip-rule="evenodd" d="M12.6427 7.24255C12.7989 7.39876 12.7989 7.65202 12.6427 7.80823L8.68293 11.768C8.52672 11.9242 8.27345 11.9242 8.11724 11.768L7.97582 11.6266C7.97408 11.6249 7.97236 11.6231 7.97067 11.6214L4.15744 7.80814C4.00123 7.65193 4.00123 7.39867 4.15744 7.24246L4.29887 7.10103C4.45508 6.94482 4.70834 6.94482 4.86455 7.10103L8.40013 10.6366L11.9356 7.10113C12.0918 6.94492 12.3451 6.94492 12.5013 7.10113L12.6427 7.24255Z" fill="#666666"/>
</svg>
