<svg width="32" height="12" viewBox="0 0 32 12" fill="none" xmlns="http://www.w3.org/2000/svg">
    <path fill-rule="evenodd" clip-rule="evenodd"
        d="M8.6347 11.9983C9.72788 11.9992 10.6193 11.1223 10.6362 10.0292L10.673 7.64717C11.6292 7.36896 13.5482 6.92739 16.0961 6.92739C18.6443 6.92739 20.5804 7.36912 21.5479 7.64767L21.5621 9.97475C21.5689 11.0721 22.4585 11.9591 23.5559 11.9625L29.9833 11.9825C31.0878 11.9859 31.986 11.0933 31.9895 9.98883L32 6.68064C32 4.65824 30.7746 2.85759 28.9507 2.2C26.1675 1.1964 21.6615 0 16 0C10.3386 0 5.83262 1.1964 3.04934 2.2C2.38985 2.43778 1.80885 2.82489 1.33541 3.31805C0.499655 4.18858 0.000161509 5.38952 0 6.68064L0.00557949 9.99594C0.00743508 11.0985 0.90127 11.9916 2.00385 11.9926L8.6347 11.9983Z"
        fill="#333333" />
</svg>
    