<svg width="12" height="13" viewBox="0 0 12 13" fill="none" xmlns="http://www.w3.org/2000/svg">
    <path fill-rule="evenodd" clip-rule="evenodd"
        d="M10.7968 3.14412C11.0484 2.85173 11.0171 2.40956 10.7268 2.156L9.03106 0.673353C8.89195 0.551204 8.71028 0.489692 8.52606 0.502365C8.34184 0.515037 8.17018 0.600854 8.04888 0.740917L6.9613 2.0021L9.7101 4.40436L10.7968 3.14412ZM6.31117 2.75281L0.00859902 10.0525C-0.0156524 10.0806 0.0169938 11.3428 0.0375142 12.0428C0.0450803 12.2964 0.251683 12.498 0.503888 12.4979C1.26781 12.4979 2.73222 12.4829 2.75647 12.4548L9.05905 5.15695L6.31117 2.75281ZM4.19757 12.5007L5.22919 11.3634L11.4404 11.3747C11.7484 11.3772 11.9975 11.6278 12 11.9377C11.9975 12.2476 11.7484 12.4982 11.4404 12.5007H4.19757Z"
        fill="#8F959E"
        style="fill:#8F959E;fill:color(display-p3 0.5608 0.5843 0.6196);fill-opacity:1;" />
</svg>
    