<svg width="80" height="80" viewBox="0 0 80 80" fill="none" xmlns="http://www.w3.org/2000/svg">
<g id="&#231;&#188;&#150;&#231;&#187;&#132;">
<path id="&#232;&#183;&#175;&#229;&#190;&#132;" d="M21.7586 47.8445C24.2492 44.3734 27.5657 42.0119 31.6213 40.8833L31.6233 40.8827C33.8865 40.2558 35.8501 40.18 36.9868 40.2104L38.6862 40.2558V41.9558V47.2029L50.0059 35.4911L38.7474 23.7914V29.2632V30.9495L37.0622 31.0082C31.5917 31.1989 27.6967 32.965 25.1719 36.041C24.1502 37.2907 23.3303 38.7892 22.7494 40.5163L21.7586 47.8445ZM21.7586 47.8445C21.733 47.0661 21.7407 46.0942 21.837 45.0106C21.9836 43.392 22.291 41.8801 22.7493 40.5166L21.7586 47.8445Z" stroke="#444444" stroke-width="3.49206"/>
<path id="&#231;&#159;&#169;&#229;&#189;&#162;" fill-rule="evenodd" clip-rule="evenodd" d="M43.5636 47.6924C43.5636 47.1401 44.0113 46.6924 44.5636 46.6924H59C59.5522 46.6924 60 47.1401 60 47.6924V49.7949C60 50.3472 59.5522 50.7949 59 50.7949H44.5636C44.0113 50.7949 43.5636 50.3472 43.5636 49.7949V47.6924Z" fill="#444444"/>
<rect id="&#231;&#159;&#169;&#229;&#189;&#162;_2" x="20.1455" y="54.8975" width="39.8545" height="4.10256" rx="1" fill="#444444"/>
<circle id="&#230;&#164;&#173;&#229;&#156;&#134;&#229;&#189;&#162;" cx="40" cy="40" r="38" stroke="#444444" stroke-width="4"/>
</g>
</svg>
