<svg width="16" height="16" viewBox="0 0 16 16" fill="none" xmlns="http://www.w3.org/2000/svg">
  <path
    d="M9.30533 7.99984L15.7557 1.54943C16.0813 1.22383 16.0813 0.687032 15.7557 0.361432L15.7205 0.326232C15.3949 0.000631131 14.8581 0.000631131 14.5325 0.326232L8.08212 6.78544L1.63172 0.326232C1.30612 0.000631131 0.769316 0.000631131 0.443715 0.326232L0.408515 0.361432C0.0741147 0.687032 0.0741147 1.22383 0.408515 1.54943L6.85892 7.99984L0.408515 14.4502C0.0829148 14.7759 0.0829148 15.3126 0.408515 15.6383L0.443715 15.6735C0.769316 15.9991 1.30612 15.9991 1.63172 15.6735L8.08212 9.22304L14.5325 15.6735C14.8581 15.9991 15.3949 15.9991 15.7205 15.6735L15.7557 15.6383C16.0813 15.3126 16.0813 14.7759 15.7557 14.4502L9.30533 7.99984Z"
    fill="#8F959E" />
</svg>
  