<svg width="12" height="12" viewBox="0 0 12 12" fill="none" xmlns="http://www.w3.org/2000/svg">
<g opacity="0.5">
<path fill-rule="evenodd" clip-rule="evenodd" d="M8.13523 8.8285C7.32854 9.49429 6.29431 9.89425 5.16667 9.89425C2.58933 9.89425 0.5 7.80491 0.5 5.22758C0.5 2.65025 2.58933 0.560913 5.16667 0.560913C7.744 0.560913 9.83333 2.65025 9.83333 5.22758C9.83333 6.38924 9.40889 7.45176 8.70662 8.26852L11.2138 10.7757C11.344 10.9059 11.344 11.1169 11.2138 11.2471L11.1195 11.3414C10.9894 11.4716 10.7783 11.4716 10.6481 11.3414L8.13523 8.8285ZM9.03333 5.22759C9.03333 7.36309 7.30217 9.09425 5.16666 9.09425C3.03116 9.09425 1.3 7.36309 1.3 5.22759C1.3 3.09208 3.03116 1.36092 5.16666 1.36092C7.30217 1.36092 9.03333 3.09208 9.03333 5.22759Z" fill="black" style="fill:black;fill:black;fill-opacity:1;"/>
</g>
</svg>
