<svg width="13" height="13" viewBox="0 0 13 13" fill="none" xmlns="http://www.w3.org/2000/svg">
<path d="M6.50001 13C2.91038 13 0 10.0896 0 6.50001C0 2.91038 2.91038 0 6.50001 0C10.0896 0 13 2.91038 13 6.50001C13 10.0896 10.0896 13 6.50001 13ZM5.05051 9.05234C5.31489 9.31679 5.74359 9.31685 6.00805 9.05247C6.00809 9.05242 6.00813 9.05238 6.00817 9.05234L10.1129 4.94758C10.3774 4.68313 10.3774 4.25437 10.1129 3.98992C9.84847 3.72546 9.41971 3.72546 9.15526 3.98992L5.50008 7.58659L3.86425 5.95076C3.5998 5.68631 3.17104 5.68631 2.90659 5.95076C2.64213 6.21521 2.64213 6.64398 2.90659 6.90843L5.05051 9.05235L5.05051 9.05234Z" fill="#999"/>
</svg>
