<svg width="12" height="12" viewBox="0 0 12 12" fill="none" xmlns="http://www.w3.org/2000/svg">
<path d="M6.92904 6L11.815 1.11198C12.0617 0.86524 12.0617 0.458461 11.815 0.211725L11.7884 0.185051C11.5417 -0.0616838 11.1351 -0.0616838 10.8885 0.185051L6.0025 5.07974L1.11651 0.185051C0.869879 -0.0616838 0.463269 -0.0616838 0.216637 0.185051L0.189974 0.211725C-0.0633245 0.458461 -0.0633245 0.86524 0.189974 1.11198L5.07596 6L0.189974 10.888C-0.0566588 11.1348 -0.0566588 11.5415 0.189974 11.7883L0.216637 11.8149C0.463269 12.0617 0.869879 12.0617 1.11651 11.8149L6.0025 6.92692L10.8885 11.8149C11.1351 12.0617 11.5417 12.0617 11.7884 11.8149L11.815 11.7883C12.0617 11.5415 12.0617 11.1348 11.815 10.888L6.92904 6Z" fill="#8F959E" style="fill:#8F959E;fill:color(display-p3 0.5608 0.5843 0.6196);fill-opacity:1;"/>
</svg>
